<svg width="147" height="46" viewBox="0 0 147 46" fill="none" xmlns="http://www.w3.org/2000/svg">
<path d="M126.46 45.112C121.375 47.1435 119.307 45.219 119.307 44.0043C121.109 43.8477 125.413 43.5928 126.46 45.112ZM132.913 43.4511C131.651 44.4086 130.099 44.8721 128.536 44.7589C126.973 44.6457 125.5 43.9632 124.379 42.8332C126.114 42.3359 130.852 41.7466 132.913 43.4511ZM124.311 39.5026C124.504 42.0301 121.996 43.4511 119.287 43.6562C119.781 41.1138 122.31 39.9787 124.311 39.5026ZM129.17 37.1727C129.456 38.2531 129.062 41.1859 125.166 42.3496C125.333 40.3691 126.354 37.7906 129.17 37.1727ZM136.897 40.113C135.898 41.1415 134.58 41.7759 133.175 41.9056C131.769 42.0353 130.364 41.6522 129.203 40.8229C130.765 39.9924 134.515 38.871 136.897 40.113ZM132.78 34.2623C133.313 35.3265 133.427 38.3588 129.977 40.1839C129.777 38.232 130.537 34.8939 132.78 34.2623ZM141.314 35.4409C140.989 36.1002 140.538 36.6845 139.988 37.1583C139.437 37.6321 138.799 37.9856 138.113 38.1972C137.432 38.4033 136.718 38.461 136.014 38.3669C135.311 38.2727 134.635 38.0286 134.028 37.6501C136.203 35.5404 139.673 34.731 141.314 35.4409ZM136.157 29.7879C137.704 32.5728 136.069 35.753 134.368 37.0596C133.611 34.4712 134.306 31.6503 136.157 29.7879ZM144.184 29.6673C144.371 33.9925 139.993 33.7576 137.938 33.7862C138.585 32.8774 142.182 29.5828 144.184 29.6673ZM138.786 25.6268C139.599 26.5505 140.82 30.1012 138.117 32.998C137.27 30.9031 137.085 27.6869 138.786 25.6268ZM146.479 23.7097C146.619 27.2032 143.77 28.9711 141.021 28.9438C141.848 27.2604 144.058 24.0156 146.479 23.7097ZM140.714 21.3028C142.536 22.4093 142.329 25.9824 141.254 27.8423C140.046 26.1104 139.145 23.9584 140.714 21.3028ZM146.599 18.0294C147.5 21.2108 144.852 23.3629 143.262 23.5469C143.67 22.0276 144.202 19.336 146.599 18.0294ZM141.048 16.9714C143.056 18.0095 144.008 20.4923 143.256 22.7301C141.855 21.5652 140.167 19.1011 141.048 16.9714ZM146.693 13.1224C147.934 16.9925 145.084 18.2569 144.024 18.5677C144.15 16.9217 145.165 13.6408 146.693 13.1224ZM141.127 12.1066C141.942 12.3491 144.264 14.3159 143.843 17.8379C142.315 16.9503 140.46 15.2595 141.127 12.1066ZM145.852 7.25801C147.24 12.0146 144.924 13.9678 144.164 14.3569C144.043 12.8526 143.896 9.33794 145.852 7.25801ZM140.714 7.37736C142.168 7.79633 144.003 10.5513 143.917 13.2007C142.476 12.5194 140.32 9.68605 140.714 7.37736ZM141.148 0C144.524 3.60041 144.997 6.43996 144.011 9.94091C142.482 8.52114 141.261 4.26057 141.148 0ZM20.5402 45.112C25.625 47.1435 27.6926 45.219 27.6926 44.0043C25.8913 43.8477 21.5873 43.5928 20.5402 45.112ZM14.0855 43.4511C15.3482 44.4086 16.8995 44.8721 18.4627 44.7589C20.0258 44.6457 21.4992 43.9632 22.6199 42.8332C20.8849 42.3359 16.1471 41.7466 14.0855 43.4511ZM22.6874 39.5026C22.4946 42.0301 25.0033 43.4511 27.7119 43.6562C27.2179 41.1138 24.6888 39.9787 22.6874 39.5026ZM17.8304 37.1727C17.5436 38.2531 17.9376 41.1859 21.8343 42.3496C21.6668 40.3691 20.6463 37.7906 17.8304 37.1727ZM10.1032 40.113C11.1024 41.1415 12.4196 41.7759 13.8253 41.9056C15.2311 42.0353 16.6365 41.6522 17.7966 40.8229C16.2351 39.9924 12.4854 38.871 10.1032 40.113ZM14.2205 34.2623C13.6867 35.3265 13.5734 38.3588 17.0231 40.1839C17.2231 38.232 16.4628 34.8939 14.2205 34.2623ZM5.68602 35.4409C6.01077 36.1002 6.46203 36.6845 7.01237 37.1583C7.56272 37.6321 8.20068 37.9856 8.88749 38.1972C9.56788 38.4033 10.2824 38.461 10.9856 38.3669C11.6888 38.2727 12.3653 38.0286 12.9722 37.6501C10.7973 35.5404 7.32712 34.731 5.68602 35.4409ZM10.8431 29.7879C9.29595 32.5728 10.931 35.753 12.6324 37.0596C13.3891 34.4712 12.695 31.6503 10.8443 29.7879H10.8431ZM2.81591 29.6673C2.62914 33.9925 7.00661 33.7576 9.0622 33.7862C8.41516 32.8774 4.81848 29.5828 2.81591 29.6673ZM8.21394 25.6268C7.40062 26.5505 6.18004 30.1012 8.88267 32.998C9.72972 30.9031 9.91528 27.6869 8.21394 25.6268ZM0.521743 23.7097C0.381972 27.2032 3.2316 28.9711 5.98002 28.9438C5.15345 27.2604 2.94363 24.0156 0.521743 23.7097ZM6.28727 21.3028C4.46544 22.4093 4.67268 25.9824 5.74747 27.8423C6.9548 26.1104 7.85608 23.9584 6.28727 21.3028ZM0.401251 18.0294C-0.500028 21.2108 2.14838 23.3629 3.73767 23.5469C3.33041 22.0276 2.79663 19.336 0.400046 18.0294H0.401251ZM5.95231 16.9714C3.94371 18.0095 2.99182 20.4923 3.74369 22.7301C5.14501 21.5652 6.8331 19.1011 5.95231 16.9714ZM0.307267 13.1224C-0.933798 16.9925 1.91583 18.2569 2.97616 18.5677C2.84964 16.9217 1.8351 13.6408 0.307267 13.1224ZM5.87278 12.1066C5.05826 12.3491 2.73638 14.3159 3.1569 17.8379C4.68473 16.9503 6.54031 15.2595 5.87278 12.1066ZM1.1483 7.25801C-0.239765 12.0146 2.07609 13.9678 2.83639 14.3569C2.95688 12.8526 3.10388 9.33794 1.1483 7.25801ZM6.28607 7.37736C4.83173 7.79633 2.99664 10.5513 3.0834 13.2007C4.52448 12.5194 6.68008 9.68605 6.28607 7.37736ZM5.8523 0C2.47612 3.60041 2.00259 6.43996 2.98941 9.94091C4.51845 8.52114 5.73904 4.26057 5.8523 0ZM62.775 43.8042C65.8765 43.8042 68.349 41.6558 68.349 38.3215C68.349 35.3676 66.397 33.0402 63.5775 33.0402C62.8618 33.0402 62.3413 33.1969 61.9509 33.2864L62.5148 30.7576H67.026C67.0717 30.7583 67.1171 30.7495 67.1595 30.7318C67.2019 30.714 67.2404 30.6876 67.2728 30.6543C67.3052 30.6209 67.3307 30.5811 67.3479 30.5374C67.3651 30.4937 67.3736 30.4468 67.373 30.3996V28.1841C67.373 27.9827 67.2212 27.8485 67.026 27.8485H60.411C60.2158 27.8485 60.1073 27.9604 60.064 28.1394L58.4156 35.6361C58.3723 35.8375 58.459 35.9494 58.6325 36.0389L60.4977 36.7998C60.7363 36.8669 60.9098 36.755 61.0399 36.5984C61.4737 36.1956 62.0593 35.8823 62.775 35.8823C64.1414 35.8823 65.1174 36.9117 65.1174 38.2544C65.1174 39.5075 64.2498 40.6712 62.7316 40.6712C61.7557 40.6712 61.105 40.1789 60.6495 39.5299C60.5194 39.3509 60.3025 39.2614 60.1073 39.4404L58.3506 40.8055C58.1337 40.9621 58.0903 41.1411 58.1987 41.3649C58.8277 42.5062 60.3893 43.8042 62.775 43.8042ZM74.6386 43.7818C75.3761 43.7818 76.5472 43.6475 76.5472 43.0881V41.2307C76.5472 41.0069 76.3737 40.895 76.1568 40.9174C75.8749 40.9397 75.6797 40.9397 75.4845 40.9397C74.9423 40.9397 74.5736 40.6265 74.5736 40.0222V35.1885H76.2002C76.3954 35.1885 76.5255 35.0543 76.5255 34.8529V32.8836C76.5255 32.6822 76.3954 32.5479 76.2002 32.5479H74.5736V29.9744C74.5736 29.773 74.4218 29.6387 74.2266 29.6387H71.5589C71.3637 29.6387 71.2119 29.773 71.2119 29.9744V32.5479H69.8889C69.6937 32.5479 69.5635 32.6822 69.5635 32.8836V34.8529C69.5635 35.0543 69.6937 35.1885 69.8889 35.1885H71.2119V40.4027C71.2119 42.9538 72.8819 43.7818 74.6386 43.7818ZM84.7238 32.2794C83.2056 32.2794 82.2296 33.0626 81.6223 34.1815V27.8485C81.6223 27.6471 81.4705 27.5128 81.2753 27.5128H78.6293C78.4341 27.5128 78.304 27.6471 78.304 27.8485V43.1776C78.304 43.379 78.4341 43.5132 78.6293 43.5132H81.2753C81.4705 43.5132 81.6223 43.379 81.6223 43.1776V37.6278C81.6223 36.1732 82.3164 35.4123 83.4659 35.4123C84.6371 35.4123 85.2443 36.1732 85.2443 37.6278V43.1776C85.2443 43.379 85.3962 43.5132 85.5913 43.5132H88.2157C88.4108 43.5132 88.5627 43.379 88.5627 43.1776V36.8221C88.5627 33.9577 86.936 32.2794 84.7238 32.2794ZM24.9659 18.6485C25.0744 18.6485 25.1466 18.5739 25.1466 18.462V15.6523H26.0142C28.0505 15.6523 29.0144 14.4961 29.0144 12.8053C29.0144 11.1145 28.0505 9.94588 26.0142 9.94588H23.4236C23.3152 9.94588 23.2429 10.0205 23.2429 10.1324V18.462C23.2429 18.5739 23.3152 18.6485 23.4236 18.6485H24.9659ZM25.1466 11.6864H25.966C26.6046 11.6864 27.195 11.8978 27.195 12.8053C27.195 13.7005 26.6046 13.9118 25.966 13.9118H25.1466V11.6864ZM31.7737 18.6485C31.8821 18.6485 31.9665 18.5739 31.9665 18.462V15.528C31.9665 14.6204 32.4244 14.1232 33.1835 14.1232C33.3642 14.1232 33.4967 14.148 33.6172 14.1853C33.7859 14.2226 33.8703 14.1853 33.8703 14.0237V12.8178C33.8703 12.7059 33.8462 12.6313 33.7618 12.5691C33.6654 12.4945 33.5088 12.4075 33.2196 12.4075C32.5328 12.4075 32.1593 12.9048 31.9665 13.5637L31.9062 12.7556C31.9062 12.6064 31.8339 12.5567 31.7255 12.5567H30.3037C30.1953 12.5567 30.123 12.6313 30.123 12.7432V18.462C30.123 18.5739 30.1953 18.6485 30.3037 18.6485H31.7737ZM37.5212 18.7977C39.3044 18.7977 40.6298 17.4053 40.6298 15.6026C40.6298 13.7999 39.3044 12.4075 37.5212 12.4075C35.7379 12.4075 34.4245 13.7999 34.4245 15.6026C34.4245 17.4053 35.7379 18.7977 37.5212 18.7977ZM37.5212 17.0572C36.7741 17.0572 36.1957 16.4977 36.1957 15.6026C36.1957 14.7075 36.7741 14.148 37.5212 14.148C38.2682 14.148 38.8466 14.7075 38.8466 15.6026C38.8466 16.4977 38.2682 17.0572 37.5212 17.0572ZM44.1362 18.7977C44.9796 18.7977 45.5821 18.4496 45.9797 17.8653L46.0038 18.462C46.0038 18.5739 46.0881 18.6485 46.1966 18.6485H47.522C47.6304 18.6485 47.7268 18.5739 47.7268 18.462V9.94588C47.7268 9.83399 47.6425 9.7594 47.534 9.7594H46.052C45.9435 9.7594 45.8712 9.83399 45.8712 9.94588V13.1659C45.4736 12.681 44.9073 12.4075 44.1362 12.4075C42.4975 12.4075 41.3648 13.7999 41.3648 15.6026C41.3648 17.4177 42.4975 18.7977 44.1362 18.7977ZM44.5338 17.0696C43.7506 17.0696 43.1602 16.4977 43.1602 15.6026C43.1602 14.7199 43.7506 14.1356 44.5338 14.1356C45.3411 14.1356 45.8953 14.7199 45.8953 15.5902C45.8953 16.4853 45.3411 17.0696 44.5338 17.0696ZM51.1849 18.7977C52.0404 18.7977 52.5826 18.3626 52.92 17.741L52.9682 18.4496C52.9682 18.5988 53.0525 18.6485 53.161 18.6485H54.5707C54.6792 18.6485 54.7635 18.5739 54.7635 18.462V12.7432C54.7635 12.6313 54.6792 12.5567 54.5707 12.5567H53.1128C53.0043 12.5567 52.92 12.6313 52.92 12.7432V15.8264C52.92 16.6345 52.5224 17.0572 51.8958 17.0572C51.2452 17.0572 50.9078 16.6345 50.9078 15.8264V12.7432C50.9078 12.6313 50.8234 12.5567 50.715 12.5567H49.245C49.1366 12.5567 49.0643 12.6313 49.0643 12.7432V16.274C49.0643 17.8653 49.9559 18.7977 51.1849 18.7977ZM58.9446 18.7977C59.8965 18.7977 60.6917 18.3626 61.1978 17.6788C61.2701 17.5918 61.258 17.4923 61.1857 17.4177L60.3543 16.5972C60.258 16.4977 60.1254 16.4977 60.0411 16.5848C59.7157 16.8956 59.4025 17.0572 59.0048 17.0572C58.1132 17.0572 57.583 16.361 57.583 15.5653C57.583 14.7821 58.1132 14.148 58.9807 14.148C59.3904 14.148 59.7037 14.2972 60.017 14.6204C60.1134 14.7075 60.2459 14.7075 60.3423 14.608L61.1737 13.7875C61.246 13.7129 61.258 13.601 61.1857 13.5264C60.6797 12.8426 59.8844 12.4075 58.8964 12.4075C57.1131 12.4075 55.8118 13.775 55.8118 15.5653C55.8118 17.3929 57.1372 18.7977 58.9446 18.7977ZM64.692 18.7977C65.1017 18.7977 65.7524 18.7231 65.7524 18.4123V17.3804C65.7524 17.2561 65.656 17.1939 65.5355 17.2064C65.3789 17.2188 65.2704 17.2188 65.162 17.2188C64.8607 17.2188 64.6559 17.0448 64.6559 16.7091V14.0237H65.5596C65.668 14.0237 65.7403 13.9491 65.7403 13.8372V12.7432C65.7403 12.6313 65.668 12.5567 65.5596 12.5567H64.6559V11.127C64.6559 11.0151 64.5716 10.9405 64.4631 10.9405H62.9811C62.8726 10.9405 62.7883 11.0151 62.7883 11.127V12.5567H62.0533C61.9448 12.5567 61.8725 12.6313 61.8725 12.7432V13.8372C61.8725 13.9491 61.9448 14.0237 62.0533 14.0237H62.7883V16.9204C62.7883 18.3377 63.7161 18.7977 64.692 18.7977ZM71.8613 18.7977C73.6446 18.7977 74.97 17.4053 74.97 15.6026C74.97 13.7999 73.6446 12.4075 71.8613 12.4075C70.078 12.4075 68.7647 13.7999 68.7647 15.6026C68.7647 17.4053 70.078 18.7977 71.8613 18.7977ZM71.8613 17.0572C71.1143 17.0572 70.5359 16.4977 70.5359 15.6026C70.5359 14.7075 71.1143 14.148 71.8613 14.148C72.6084 14.148 73.1867 14.7075 73.1867 15.6026C73.1867 16.4977 72.6084 17.0572 71.8613 17.0572ZM78.0666 18.6485C78.1751 18.6485 78.2594 18.5739 78.2594 18.462V14.0237H79.4402C79.5487 14.0237 79.621 13.9491 79.621 13.8372V12.7432C79.621 12.6313 79.5487 12.5567 79.4402 12.5567H78.2594V11.9475C78.2594 11.5372 78.392 11.2388 78.9583 11.2388C79.0908 11.2388 79.2595 11.2761 79.4643 11.3134C79.5487 11.3259 79.621 11.3134 79.621 11.2264V9.97075C79.621 9.89615 79.5848 9.80913 79.5125 9.77183C79.1511 9.58535 78.886 9.56048 78.5245 9.56048C77.2111 9.56048 76.4039 10.207 76.4039 11.6988V12.5567H75.705C75.5966 12.5567 75.5243 12.6313 75.5243 12.7432V13.8372C75.5243 13.9491 75.5966 14.0237 75.705 14.0237H76.4039V18.462C76.4039 18.5739 76.4761 18.6485 76.5846 18.6485H78.0666ZM85.3925 18.7977C85.8022 18.7977 86.4529 18.7231 86.4529 18.4123V17.3804C86.4529 17.2561 86.3565 17.1939 86.236 17.2064C86.0793 17.2188 85.9709 17.2188 85.8625 17.2188C85.5612 17.2188 85.3564 17.0448 85.3564 16.7091V14.0237H86.2601C86.3685 14.0237 86.4408 13.9491 86.4408 13.8372V12.7432C86.4408 12.6313 86.3685 12.5567 86.2601 12.5567H85.3564V11.127C85.3564 11.0151 85.272 10.9405 85.1636 10.9405H83.6815C83.5731 10.9405 83.4888 11.0151 83.4888 11.127V12.5567H82.7538C82.6453 12.5567 82.573 12.6313 82.573 12.7432V13.8372C82.573 13.9491 82.6453 14.0237 82.7538 14.0237H83.4888V16.9204C83.4888 18.3377 84.4166 18.7977 85.3925 18.7977ZM90.9954 12.4075C90.152 12.4075 89.6097 12.8426 89.2724 13.4642V9.94588C89.2724 9.83399 89.188 9.7594 89.0796 9.7594H87.6096C87.5011 9.7594 87.4288 9.83399 87.4288 9.94588V18.462C87.4288 18.5739 87.5011 18.6485 87.6096 18.6485H89.0796C89.188 18.6485 89.2724 18.5739 89.2724 18.462V15.3788C89.2724 14.5707 89.6579 14.148 90.2966 14.148C90.9472 14.148 91.2846 14.5707 91.2846 15.3788V18.462C91.2846 18.5739 91.3689 18.6485 91.4774 18.6485H92.9353C93.0438 18.6485 93.1281 18.5739 93.1281 18.462V14.9313C93.1281 13.3399 92.2244 12.4075 90.9954 12.4075ZM97.4297 18.7977C98.2611 18.7977 99.0202 18.5491 99.5262 18.0269C99.6347 17.9275 99.6347 17.828 99.5865 17.7534L99.0924 17.0323C99.0202 16.9453 98.972 16.9204 98.8756 16.9702C98.3815 17.2561 97.9719 17.3058 97.5743 17.3058C96.7308 17.3058 96.1765 16.9826 95.9717 16.3237H99.3696C99.9118 16.3237 100.068 15.9507 100.068 15.3291C100.068 13.7626 99.0202 12.4075 97.2128 12.4075C95.3934 12.4075 94.1764 13.7875 94.1764 15.5777C94.1764 17.4302 95.4897 18.7977 97.4297 18.7977ZM95.9476 15.0059C96.0922 14.2848 96.6103 13.974 97.2248 13.974C97.8393 13.974 98.3093 14.2723 98.4297 15.0059H95.9476ZM105.912 18.7977C106.756 18.7977 107.358 18.4496 107.756 17.8653L107.78 18.462C107.78 18.5739 107.864 18.6485 107.973 18.6485H109.298C109.407 18.6485 109.503 18.5739 109.503 18.462V9.94588C109.503 9.83399 109.419 9.7594 109.31 9.7594H107.828C107.72 9.7594 107.647 9.83399 107.647 9.94588V13.1659C107.25 12.681 106.683 12.4075 105.912 12.4075C104.274 12.4075 103.141 13.7999 103.141 15.6026C103.141 17.4177 104.274 18.7977 105.912 18.7977ZM106.31 17.0696C105.527 17.0696 104.936 16.4977 104.936 15.6026C104.936 14.7199 105.527 14.1356 106.31 14.1356C107.117 14.1356 107.671 14.7199 107.671 15.5902C107.671 16.4853 107.117 17.0696 106.31 17.0696ZM113.31 18.7977C114.154 18.7977 114.756 18.4496 115.154 17.8653L115.178 18.462C115.178 18.5739 115.262 18.6485 115.371 18.6485H116.696C116.805 18.6485 116.901 18.5739 116.901 18.462V12.7432C116.901 12.6313 116.817 12.5567 116.708 12.5567H115.371C115.262 12.5567 115.178 12.6313 115.178 12.7432L115.154 13.3275C114.768 12.7556 114.178 12.4075 113.31 12.4075C111.672 12.4075 110.539 13.7999 110.539 15.6026C110.539 17.4177 111.672 18.7977 113.31 18.7977ZM113.708 17.0696C112.925 17.0696 112.334 16.4977 112.334 15.6026C112.334 14.7199 112.925 14.1356 113.708 14.1356C114.515 14.1356 115.07 14.7199 115.07 15.5902C115.07 16.4853 114.515 17.0696 113.708 17.0696ZM120.889 21.0107C120.986 21.0107 121.07 20.961 121.106 20.8615L124.239 12.768C124.287 12.6313 124.215 12.5567 124.082 12.5567H122.588C122.492 12.5567 122.396 12.6064 122.359 12.7059L121.058 16.4356L119.757 12.7059C119.721 12.6064 119.624 12.5567 119.528 12.5567H118.034C117.901 12.5567 117.829 12.6313 117.877 12.768L120.166 18.661L119.299 20.7869C119.239 20.9361 119.311 21.0107 119.456 21.0107H120.889Z" fill="white"/>
</svg>
