<svg width="30" height="30" viewBox="0 0 30 30" fill="none" xmlns="http://www.w3.org/2000/svg">
<rect x="0.5" y="0.5" width="29" height="29" rx="14.5" fill="#FFB800" fill-opacity="0.22"/>
<rect x="0.5" y="0.5" width="29" height="29" rx="14.5" stroke="#FFB800"/>
<g clip-path="url(#clip0_1_9210)">
<path d="M10.8559 13.5511C10.8345 14.1704 11.1706 14.4447 11.1789 14.6188C11.175 14.6543 11.1619 14.6884 11.1407 14.7182C11.1195 14.748 11.0909 14.7727 11.0572 14.7903L10.6772 15.0353C10.628 15.067 10.5701 15.0852 10.5101 15.0878C10.4973 15.0872 10.2669 15.1378 9.90206 14.3875C9.67947 14.6434 9.39625 14.8491 9.07407 14.9887C8.7519 15.1282 8.39932 15.1981 8.04333 15.1928C7.56001 15.2171 6.2502 14.9401 6.31759 13.6558C6.27039 12.6091 7.32875 11.9588 8.42333 12.0138C8.63411 12.0143 9.06458 12.0239 9.81834 12.1852V11.7581C9.8982 11.0346 9.38194 10.4732 8.48805 10.5575C8.4168 10.5577 7.91211 10.5438 7.12717 10.8339C6.90867 10.9263 6.88076 10.911 6.80803 10.911C6.58805 10.911 6.67859 10.3237 6.72075 10.2493C6.87542 10.0743 7.78534 9.74754 8.67834 9.75219C9.27543 9.70356 9.86932 9.87329 10.3316 10.2247C10.5195 10.4183 10.6629 10.645 10.7531 10.8911C10.8432 11.1372 10.8783 11.3975 10.8562 11.6564L10.8559 13.5511ZM8.29033 14.4367C9.25309 14.4239 9.6607 13.8907 9.75362 13.6036C9.82666 13.3288 9.81448 13.1548 9.81448 12.8543C9.52741 12.7909 9.11416 12.7217 8.64005 12.7212C8.19028 12.69 7.36883 12.8751 7.40089 13.6033C7.36408 14.0624 7.73101 14.4619 8.29033 14.4367ZM13.3645 15.067C13.1312 15.0867 13.0225 14.9341 12.9881 14.7834L11.5096 10.2813C11.4808 10.2053 11.4618 10.1268 11.4526 10.0467C11.4472 10.0137 11.4562 9.97998 11.4777 9.95306C11.4992 9.92614 11.5314 9.90819 11.5672 9.90313C11.5744 9.90204 11.504 9.90313 12.2278 9.90313C12.4884 9.87907 12.5733 10.068 12.6004 10.1867L13.6608 14.0375L14.6452 10.1867C14.661 10.0986 14.7325 9.88399 15.0252 9.90668H15.5347C15.5991 9.90176 15.8645 9.89301 15.9111 10.1902L16.9033 14.0903L17.9978 10.1902C18.0121 10.1306 18.0786 9.87934 18.3743 9.90668H18.9597C18.985 9.90313 19.1423 9.88454 19.1156 10.1413C19.1028 10.1919 19.2168 9.84981 17.5496 14.787C17.5154 14.9377 17.4065 15.0902 17.1731 15.0706H16.6183C16.2935 15.102 16.2469 14.8064 16.2418 14.7766L15.2574 11.027L14.2842 14.7728C14.2795 14.8026 14.2329 15.0982 13.9078 15.0667H13.3645V15.067ZM21.4835 15.2209C21.3089 15.2212 20.4765 15.2127 19.7806 14.8849C19.7113 14.8579 19.6522 14.8125 19.6109 14.7545C19.5697 14.6965 19.548 14.6286 19.5487 14.5592V14.2653C19.5487 14.0342 19.7328 14.0766 19.8109 14.1042C20.1089 14.2152 20.3001 14.2995 20.6662 14.3667C21.7542 14.5726 22.2328 14.3038 22.35 14.2442C22.7404 14.0307 22.7713 13.542 22.5059 13.2886C22.1948 13.0482 22.0463 13.0392 20.9286 12.7143C20.7908 12.6791 19.6312 12.3422 19.6286 11.2826C19.6105 10.5104 20.3722 9.74645 21.6925 9.75274C22.0686 9.75247 23.0708 9.86567 23.3422 10.1798C23.3823 10.237 23.4022 10.3043 23.3992 10.3723V10.6488C23.3992 10.7702 23.3511 10.8309 23.2546 10.8309C23.0257 10.8074 22.6196 10.5255 21.7952 10.537C21.5906 10.5271 20.6109 10.5618 20.6549 11.2197C20.6421 11.7382 21.4449 11.9326 21.5366 11.955C22.619 12.255 22.9809 12.3047 23.4105 12.7638C23.9193 13.3722 23.645 14.0845 23.5396 14.2798C22.9732 15.3049 21.5084 15.2215 21.4835 15.2209ZM22.6769 18.0882C20.5979 19.5024 17.5798 20.2552 15.003 20.2552C11.526 20.2763 8.16618 19.0987 5.58401 16.954C5.39016 16.7929 5.56116 16.5723 5.79687 16.695C8.66126 18.2042 11.9043 18.9971 15.2042 18.9952C17.6685 18.983 20.1059 18.5226 22.3765 17.6403C22.7262 17.5036 23.0228 17.8536 22.6769 18.0882ZM23.5435 17.1779C23.2775 16.8629 21.7836 17.0308 21.1147 17.1044C20.9132 17.1254 20.879 16.9644 21.0616 16.8454C22.2512 16.0752 24.2049 16.2958 24.4293 16.5548C24.6535 16.8137 24.3685 18.6168 23.2549 19.4781C23.0839 19.6113 22.9203 19.541 22.9963 19.366C23.2469 18.7849 23.8095 17.4932 23.5435 17.1779Z" fill="#FFB800"/>
</g>
<defs>
<clipPath id="clip0_1_9210">
<rect width="19" height="14" fill="white" transform="translate(5.5 8)"/>
</clipPath>
</defs>
</svg>
