<svg width="35" height="35" viewBox="0 0 35 35" fill="none" xmlns="http://www.w3.org/2000/svg">
<rect x="0.5" y="0.5" width="34" height="34" rx="17" fill="#19FB9B" fill-opacity="0.22"/>
<rect x="0.5" y="0.5" width="34" height="34" rx="17" stroke="#19FB9B"/>
<g clip-path="url(#clip0_6091_16902)">
<path d="M13.2356 23.0441L13.2355 23.0442C12.311 23.3187 11.0381 23.4949 9.65879 23.5449C10.8792 24.5159 12.4341 25.0982 14.1262 25.0982C17.1864 25.0982 19.9613 24.037 22.001 22.6316C23.0208 21.929 23.8558 21.141 24.4505 20.358C25.0456 19.5743 25.3975 18.7991 25.457 18.1213C25.457 18.1211 25.457 18.121 25.457 18.1209L25.5068 18.1253L13.2356 23.0441ZM13.2356 23.0441C13.3984 22.9953 13.492 22.824 13.4439 22.6608C13.3959 22.4981 13.2244 22.4025 13.0592 22.4532L13.0739 22.501M13.2356 23.0441L26.1958 16.0197M26.1958 16.0197L26.1956 16.0197C26.0272 16.0155 25.8931 15.8793 25.8931 15.711V15.7081C25.8931 14.998 25.5314 14.3366 24.9369 13.9422C24.3423 14.3373 23.9806 14.9988 23.9806 15.7081C23.9806 16.3005 24.2347 16.8714 24.6794 17.2746C24.7745 17.3604 24.8062 17.4952 24.76 17.6144C24.7136 17.7336 24.5988 17.8116 24.4718 17.8116L7.02747 17.8094V18.1468C7.02747 20.0036 7.77478 21.6929 8.99078 22.9411C10.5693 22.931 12.0462 22.7539 13.0597 22.4531L13.0739 22.501M26.1958 16.0197C26.8904 16.0349 27.5199 16.3715 27.9141 16.9278L26.1958 16.0197ZM13.0739 22.501C12.0497 22.8051 10.559 22.9826 8.96985 22.9912M13.0739 22.501C13.2119 22.4586 13.3557 22.5384 13.3959 22.675C13.4362 22.8115 13.3578 22.9553 13.2213 22.9962L8.96985 22.9912M8.96985 22.9912C7.73647 21.7327 6.97747 20.0249 6.97747 18.1468L6.97747 17.8094L8.96985 22.9912ZM26.0334 18.4556C25.7629 19.9712 24.378 21.7761 22.2823 23.2051C20.165 24.6488 17.3137 25.715 14.1269 25.715C12.0097 25.715 10.0894 24.8747 8.69426 23.5157C8.64958 23.4891 8.61189 23.4523 8.58486 23.4071C7.23968 22.0453 6.41069 20.1889 6.41069 18.1461V17.5007C6.41069 17.4196 6.44225 17.3405 6.50092 17.2826C6.55843 17.2252 6.6365 17.1926 6.71872 17.1926H10.0037V14.625C10.0037 14.4543 10.1418 14.3162 10.3125 14.3162H12.8787V11.75C12.8787 11.5793 13.0168 11.4412 13.1875 11.4412H15.7537V8.87496C15.7537 8.70432 15.8918 8.56621 16.0625 8.56621H18.9375C19.1081 8.56621 19.2462 8.70432 19.2462 8.87496V14.3162H21.8125C21.9831 14.3162 22.1212 14.4543 22.1212 14.625V17.1948H23.8063C23.5194 16.7546 23.3624 16.2386 23.3624 15.7081C23.3624 14.7164 23.9087 13.7985 24.7869 13.3119C24.7869 13.3119 24.7869 13.3119 24.7869 13.3119L26.0334 18.4556ZM26.0334 18.4556H26.1458C27.1302 18.4556 28.0508 17.9295 28.5471 17.0833C28.6038 16.9872 28.6038 16.8671 28.5471 16.7709C28.1054 16.0187 27.3528 15.5288 26.4964 15.423C26.4032 14.5422 25.8806 13.7503 25.0864 13.312L26.0334 18.4556ZM14.625 22.4015C14.9502 22.4015 15.214 22.1376 15.214 21.8125C15.214 21.4873 14.9502 21.2234 14.625 21.2234C14.2998 21.2234 14.0359 21.4873 14.0359 21.8125C14.0359 22.1376 14.2998 22.4015 14.625 22.4015ZM19.2462 14.9337H21.503V17.1912H19.2462V14.9337ZM16.3712 14.9337H18.6287V17.1912H16.3712V14.9337ZM13.4962 14.9337H15.7537V17.1912H13.4962V14.9337ZM10.6212 14.9337H12.8787V17.1912H10.6212V14.9337ZM16.3712 12.0587H18.6287V14.3162H16.3712V12.0587ZM13.4962 12.0587H15.7537V14.3162H13.4962V12.0587ZM16.3712 9.18371H18.6287V11.4412H16.3712V9.18371Z" fill="#19FB9B" stroke="#19FB9B" stroke-width="0.1"/>
</g>
<defs>
<clipPath id="clip0_6091_16902">
<rect width="23" height="23" fill="white" transform="translate(6 6)"/>
</clipPath>
</defs>
</svg>
