<svg width="18" height="18" viewBox="0 0 18 18" fill="none" xmlns="http://www.w3.org/2000/svg">
<path fill-rule="evenodd" clip-rule="evenodd" d="M16.0913 4.06199C16.1625 4.17015 16.1943 4.29958 16.1811 4.42843C16.168 4.55729 16.1108 4.67767 16.0192 4.76924L9.1245 11.6632C9.05397 11.7337 8.96596 11.7842 8.8695 11.8095L5.99775 12.5595C5.90282 12.5843 5.80307 12.5838 5.7084 12.558C5.61372 12.5323 5.52741 12.4823 5.45805 12.4129C5.38868 12.3436 5.33866 12.2573 5.31295 12.1626C5.28724 12.0679 5.28674 11.9682 5.3115 11.8732L6.0615 9.00224C6.08393 8.91627 6.12517 8.83634 6.18225 8.76824L13.1025 1.85249C13.208 1.74716 13.3509 1.68799 13.5 1.68799C13.6491 1.68799 13.792 1.74716 13.8975 1.85249L16.0192 3.97349C16.0455 4.00112 16.0695 4.03071 16.0913 4.06199ZM14.826 4.37099L13.5 3.04574L7.1115 9.43424L6.64275 11.229L8.4375 10.7602L14.826 4.37099Z" fill="white"/>
<path d="M14.7308 12.8701C14.9357 11.118 15.0012 9.35246 14.9265 7.59006C14.9247 7.54852 14.9316 7.50707 14.9467 7.46834C14.9618 7.4296 14.9848 7.39443 15.0142 7.36506L15.7523 6.62706C15.7724 6.60678 15.798 6.59275 15.826 6.58667C15.8539 6.58058 15.883 6.5827 15.9098 6.59275C15.9366 6.60281 15.9599 6.62039 15.9769 6.64337C15.9939 6.66636 16.0039 6.69377 16.0058 6.72231C16.1443 8.81574 16.0916 10.9174 15.8483 13.0013C15.6713 14.5178 14.4532 15.7066 12.9435 15.8753C10.3225 16.1654 7.6775 16.1654 5.0565 15.8753C3.5475 15.7066 2.32875 14.5178 2.15175 13.0013C1.84133 10.3428 1.84133 7.65728 2.15175 4.99881C2.32875 3.48231 3.54675 2.29356 5.0565 2.12481C7.04584 1.90509 9.05003 1.85166 11.0483 1.96506C11.0768 1.96711 11.1043 1.97732 11.1272 1.99447C11.1502 2.01162 11.1678 2.03499 11.1779 2.06182C11.188 2.08866 11.1902 2.11782 11.1842 2.14586C11.1783 2.17391 11.1644 2.19966 11.1443 2.22006L10.3995 2.96406C10.3704 2.99319 10.3356 3.01602 10.2973 3.03112C10.2589 3.04621 10.2179 3.05326 10.1768 3.05181C8.50932 2.9947 6.83994 3.05861 5.18175 3.24306C4.69721 3.29669 4.24489 3.5121 3.89787 3.8545C3.55084 4.19689 3.32938 4.64628 3.26925 5.13006C2.96839 7.70129 2.96839 10.2988 3.26925 12.8701C3.32938 13.3538 3.55084 13.8032 3.89787 14.1456C4.24489 14.488 4.69721 14.7034 5.18175 14.7571C7.698 15.0383 10.302 15.0383 12.819 14.7571C13.3035 14.7034 13.7559 14.488 14.1029 14.1456C14.4499 13.8032 14.6706 13.3538 14.7308 12.8701Z" fill="white"/>
</svg>
