<svg width="24" height="25" viewBox="0 0 24 25" fill="none" xmlns="http://www.w3.org/2000/svg">
<path fill-rule="evenodd" clip-rule="evenodd" d="M21.455 5.91583C21.55 6.06004 21.5923 6.23261 21.5749 6.40442C21.5574 6.57622 21.4811 6.73673 21.359 6.85883L12.166 16.0508C12.072 16.1448 11.9546 16.2121 11.826 16.2458L7.997 17.2458C7.87043 17.2788 7.73743 17.2782 7.61119 17.2439C7.48496 17.2096 7.36989 17.1429 7.27739 17.0504C7.1849 16.9579 7.11821 16.8429 7.08393 16.7166C7.04966 16.5904 7.04899 16.4574 7.082 16.3308L8.082 12.5028C8.1119 12.3882 8.16689 12.2816 8.243 12.1908L17.47 2.96983C17.6106 2.82938 17.8013 2.75049 18 2.75049C18.1988 2.75049 18.3894 2.82938 18.53 2.96983L21.359 5.79783C21.3939 5.83467 21.426 5.87411 21.455 5.91583ZM19.768 6.32783L18 4.56083L9.482 13.0788L8.857 15.4718L11.25 14.8468L19.768 6.32783Z" fill="#1A73E8"/>
<path d="M19.641 17.6601C19.9143 15.324 20.0016 12.97 19.902 10.6201C19.8997 10.5647 19.9088 10.5094 19.929 10.4578C19.9491 10.4061 19.9798 10.3592 20.019 10.3201L21.003 9.33608C21.0299 9.30904 21.064 9.29033 21.1013 9.28222C21.1385 9.27411 21.1773 9.27693 21.213 9.29034C21.2487 9.30375 21.2798 9.32719 21.3025 9.35783C21.3252 9.38847 21.3386 9.42502 21.341 9.46308C21.5257 12.2543 21.4554 15.0566 21.131 17.8351C20.895 19.8571 19.271 21.4421 17.258 21.6671C13.7633 22.0538 10.2367 22.0538 6.742 21.6671C4.73 21.4421 3.105 19.8571 2.869 17.8351C2.45511 14.2905 2.45511 10.7097 2.869 7.16508C3.105 5.14308 4.729 3.55808 6.742 3.33308C9.39445 3.04012 12.0667 2.96888 14.731 3.12008C14.7691 3.12281 14.8057 3.13642 14.8363 3.15929C14.8669 3.18215 14.8904 3.21332 14.9039 3.2491C14.9173 3.28487 14.9203 3.32376 14.9123 3.36115C14.9044 3.39854 14.8859 3.43287 14.859 3.46008L13.866 4.45208C13.8272 4.49092 13.7808 4.52136 13.7297 4.54149C13.6786 4.56162 13.6239 4.57101 13.569 4.56908C11.3458 4.49293 9.11991 4.57815 6.909 4.82408C6.26294 4.89558 5.65985 5.1828 5.19715 5.63933C4.73446 6.09586 4.43917 6.69504 4.359 7.34008C3.95786 10.7684 3.95786 14.2318 4.359 17.6601C4.43917 18.3051 4.73446 18.9043 5.19715 19.3608C5.65985 19.8174 6.26294 20.1046 6.909 20.1761C10.264 20.5511 13.736 20.5511 17.092 20.1761C17.7381 20.1046 18.3411 19.8174 18.8038 19.3608C19.2665 18.9043 19.5608 18.3051 19.641 17.6601Z" fill="#1A73E8"/>
</svg>
