<svg width="30" height="30" viewBox="0 0 30 30" fill="none" xmlns="http://www.w3.org/2000/svg">
<rect x="0.5" y="0.5" width="29" height="29" rx="14.5" fill="#56D364" fill-opacity="0.22"/>
<rect x="0.5" y="0.5" width="29" height="29" rx="14.5" stroke="#56D364"/>
<path d="M17.8744 11.8649L19.3883 10.351L19.4892 9.71358C16.7306 7.2051 12.3453 7.48959 9.85832 10.3071C9.16761 11.0896 8.65515 12.0652 8.3819 13.0727L8.92405 12.9963L11.9518 12.497L12.1855 12.258C13.5323 10.7789 15.8094 10.5798 17.3645 11.8383L17.8744 11.8649Z" fill="#56D364"/>
<path d="M21.5449 13.0281C21.1971 11.7467 20.4826 10.5947 19.4892 9.71356L17.3645 11.8383C17.8073 12.2001 18.1622 12.6577 18.4024 13.1767C18.6425 13.6957 18.7617 14.2624 18.7509 14.8341V15.2113C19.7952 15.2113 20.6419 16.0579 20.6419 17.1022C20.6419 18.1465 19.7952 18.972 18.7509 18.972H14.9636L14.5918 19.3757V21.6439L14.9636 21.9998H18.7509C21.4673 22.0209 23.6866 19.8572 23.7078 17.1408C23.7141 16.3301 23.52 15.5304 23.1427 14.8129C22.7653 14.0954 22.2165 13.4823 21.5449 13.0281Z" fill="#56D364"/>
<path d="M11.1816 22H14.9636V18.9723H11.1816C10.9138 18.9723 10.6493 18.9143 10.4061 18.8023L9.86956 18.967L8.34508 20.4808L8.21228 20.9961C9.06722 21.6416 10.1102 22.0046 11.1816 22Z" fill="#56D364"/>
<path d="M11.1816 12.1783C8.46508 12.1945 6.27609 14.4098 6.2922 17.1262C6.2967 17.8748 6.47199 18.6124 6.80471 19.283C7.13744 19.9536 7.61882 20.5394 8.2122 20.9958L10.406 18.802C9.4542 18.372 9.03126 17.2518 9.46126 16.3001C9.89125 15.3485 11.0114 14.9254 11.963 15.3553C12.3824 15.5448 12.7183 15.8808 12.9078 16.3001L15.1016 14.1064C14.6412 13.5044 14.0477 13.0171 13.3677 12.6826C12.6876 12.3481 11.9394 12.1755 11.1815 12.1782" fill="#56D364"/>
</svg>
