<svg width="30" height="30" viewBox="0 0 30 30" fill="none" xmlns="http://www.w3.org/2000/svg">
<rect x="0.5" y="0.5" width="29" height="29" rx="14.5" fill="#1A73E8" fill-opacity="0.22"/>
<rect x="0.5" y="0.5" width="29" height="29" rx="14.5" stroke="#1A73E8"/>
<g clip-path="url(#clip0_1_9231)">
<path d="M14.0483 17.4773L13.1501 17.7201C13.2282 17.9402 13.2906 18.3348 13.2906 18.8661V21.4767H14.2983V18.7143C14.4858 18.4941 14.6889 18.3879 14.9076 18.3879C15.0169 18.3879 15.1029 18.4107 15.1966 18.4638L15.47 17.5607C15.3138 17.4924 15.2435 17.4772 15.0951 17.4772C14.9857 17.4772 14.8529 17.5 14.7671 17.5379C14.5795 17.629 14.3452 17.8339 14.1968 18.0312C14.1968 17.8112 14.1421 17.6366 14.0483 17.4772M10.5801 16.1872H10.4708V21.4691H11.5175V19.1317H12.8376V18.259H11.5175V17.0448H13.1657L13.2282 16.5818C12.336 16.5198 11.4504 16.3878 10.5801 16.1872ZM8.1352 22.1749L8.6195 22.7214C9.08819 22.5392 9.67403 22.1294 9.83022 21.4767C9.88494 21.2642 9.90054 21.1276 9.90054 20.437V16.1948H8.84601V20.5508C8.84601 21.12 8.82257 21.3325 8.74441 21.5298C8.64294 21.7499 8.40076 22.0079 8.1352 22.1749ZM17.6416 19.496C17.6416 20.4218 17.4541 20.8164 17.0245 20.8164C16.8292 20.8164 16.6105 20.7102 16.5167 20.4977C16.4386 20.3004 16.3918 19.9665 16.3918 19.5112C16.3918 19.1241 16.4308 18.8509 16.4934 18.6384C16.5714 18.3955 16.7667 18.2438 17.0089 18.2438C17.1885 18.2438 17.3447 18.3197 17.4385 18.4487C17.5791 18.6308 17.6416 18.9723 17.6416 19.496ZM18.2587 21.0137C18.5867 20.6343 18.7352 20.1714 18.7352 19.5035C18.7352 18.8737 18.6023 18.4411 18.2977 18.0768C17.9697 17.6822 17.5478 17.4924 17.001 17.4924C15.9699 17.4924 15.2826 18.3045 15.2826 19.5339C15.2826 20.7634 15.9622 21.5526 17.001 21.5526C17.5869 21.5602 17.9696 21.3477 18.2587 21.0137ZM21.1176 18.8281C21.1176 19.1848 20.8989 19.3821 20.5083 19.3821C20.1569 19.3821 19.9225 19.2228 19.9225 18.8281C19.9225 18.4639 20.1412 18.2514 20.5162 18.2514C20.8912 18.2514 21.1176 18.4639 21.1176 18.8281ZM22.8908 17.9933L22.4768 17.3483C22.2424 17.5608 21.9612 17.6822 21.6878 17.6822C21.5629 17.6822 21.4926 17.667 21.2192 17.5987C20.9458 17.5228 20.7505 17.5001 20.5318 17.5001C19.5553 17.5001 18.9226 18.0161 18.9226 18.8206C18.9226 19.3974 19.1883 19.7616 19.7428 19.9057C19.5163 19.9589 19.2741 20.0727 19.1648 20.2017C19.0867 20.2928 19.0476 20.4143 19.0476 20.5584C19.0476 20.6799 19.0788 20.7861 19.1257 20.8772C19.1804 20.9606 19.2507 21.029 19.3444 21.0668C19.5241 21.1352 19.8131 21.1807 20.2584 21.1883C20.4927 21.1883 20.6333 21.1959 20.6802 21.1959C20.9536 21.2111 21.0942 21.2566 21.2035 21.3097C21.3051 21.3704 21.3832 21.507 21.3832 21.6588C21.3832 21.8106 21.2895 21.9624 21.1411 22.0535C21.0082 22.1445 20.7896 22.1825 20.5083 22.1825C20.0475 22.1825 19.7897 22.0155 19.7897 21.7044C19.7897 21.5677 19.8053 21.5374 19.8366 21.4539H18.9149C18.8757 21.5298 18.8289 21.6361 18.8289 21.8486C18.8289 22.1142 18.9305 22.3419 19.1414 22.5392C19.485 22.8655 20.0475 22.9566 20.5864 22.9566C21.1801 22.9566 21.7582 22.8199 22.0941 22.4557C22.305 22.228 22.3987 21.9776 22.3987 21.6512C22.3987 21.3022 22.2971 21.0365 22.0706 20.8164C21.805 20.566 21.5004 20.475 20.9145 20.4674L20.3755 20.4597C20.274 20.4597 20.2115 20.4218 20.2115 20.3687C20.2115 20.2624 20.3521 20.1714 20.6099 20.05C20.688 20.0575 20.7114 20.0575 20.7583 20.0575C21.5707 20.0575 22.1643 19.5719 22.1643 18.8964C22.1643 18.6384 22.0862 18.4411 21.9379 18.259C22.0628 18.2741 22.1019 18.2817 22.1955 18.2817C22.4611 18.2817 22.6721 18.1982 22.8908 17.9933ZM10.3145 11.5959C9.06475 11.8917 8.21336 12.4761 8.21336 13.1439C8.21336 13.5614 8.5414 13.9407 9.08042 14.2367C8.9164 13.9863 8.83047 13.7131 8.83047 13.4399C8.83824 12.7493 9.39293 12.1042 10.3147 11.5957M23.5001 14.2139C23.5001 13.7738 23.2188 13.3716 22.7502 13.0377C22.7893 13.1743 22.8205 13.3108 22.8205 13.4475C22.8205 14.6997 21.0161 15.7773 18.4539 16.225C18.743 16.2554 19.0398 16.2706 19.3523 16.2706C21.641 16.263 23.5001 15.3448 23.5001 14.2139ZM22.0237 13.531C22.0237 13.068 21.6175 12.643 20.9223 12.2939C21.0863 12.4836 21.1723 12.6886 21.1723 12.901C21.1723 14.0166 18.7352 14.9197 15.72 14.9197C12.7126 14.9197 10.2677 14.0166 10.2677 12.901C10.2677 12.7569 10.3067 12.6203 10.3848 12.4913C9.90054 12.8024 9.62715 13.159 9.62715 13.5385C9.62715 14.7452 12.4001 15.7242 15.8215 15.7242C19.2429 15.7242 22.0237 14.73 22.0237 13.531ZM19.321 13.4703C18.0556 14.2595 14.1655 14.563 12.4939 13.5461C11.1816 12.7494 11.6346 11.482 7.87741 8.70438C7.38534 8.34013 7.97117 7.95309 8.33827 8.20355C8.70536 8.454 8.36948 8.51471 9.11157 9.23561C10.6114 10.6927 10.5957 9.3798 10.8301 9.88071C11.33 10.9204 12.4235 11.9677 12.4235 11.9677C13.5249 12.6659 14.3998 12.8177 16.0246 11.7476C17.0557 11.0721 16.6339 12.8252 19.1569 11.5579C20.0786 11.095 20.0396 11.4061 20.977 10.1387C21.3675 9.61509 22.1096 10.541 21.266 10.6699C20.9301 10.7231 20.3599 11.0797 20.1177 11.6414C19.7662 12.4837 19.9146 13.1061 19.3209 13.4703M12.3064 11.3302C11.994 11.1936 11.6658 10.6775 11.5409 10.4726C11.8925 10.1387 11.7518 9.58471 11.5487 9.28116C11.3535 8.97761 11.1113 9.06109 10.8535 8.78032C10.5879 8.49948 10.9551 7.77097 11.291 8.33258C12.5486 10.4347 13.3766 9.562 14.3999 9.43297C15.384 9.31155 16.2589 9.83516 16.5246 8.35529C16.5714 8.11245 16.8136 8.05935 16.837 8.454C16.8604 8.85619 17.0167 9.82755 17.5557 9.94903C18.0946 10.0781 18.5321 9.82761 18.6571 9.69097C18.782 9.55438 18.8523 9.56955 18.907 9.91871C18.9617 10.2601 19.1023 10.7383 19.86 10.207C21.4145 9.12942 20.9692 8.712 21.5785 8.43122C21.9222 8.27187 22.469 8.78787 21.68 9.1749C20.5552 9.7289 20.438 10.4119 19.7272 10.8445C18.5321 11.573 18.8992 10.8748 16.9776 10.6092C16.2356 10.5106 16.0012 11.3074 15.4232 11.0797C14.103 10.5485 13.1735 10.6548 12.3064 11.3302ZM16.4698 7.43703C16.5167 7.75574 16.5714 7.74819 16.6886 7.77097C16.8058 7.80129 16.9542 7.61916 16.9542 7.45226C16.962 7.27767 16.8761 7.17142 16.7042 7.17903C16.5246 7.18658 16.4621 7.27006 16.4698 7.43709M22.2502 8.00626C22.3909 8.13529 22.7658 8.0518 22.8518 7.95316C23.0783 7.71032 23.0861 7.56613 22.9689 7.39916C22.8518 7.2398 22.6096 7.26258 22.3675 7.43709C22.1253 7.61161 22.1721 7.938 22.2502 8.00626ZM22.1487 9.61516C22.0316 9.76697 22.0237 9.88077 22.1097 9.96419C22.2034 10.0553 22.3909 10.1312 22.5236 10.0326C22.6565 9.92632 22.6565 9.77451 22.5471 9.64548C22.4299 9.5089 22.2737 9.5089 22.1487 9.61516ZM10.2912 7.71787C10.4708 7.77097 10.5568 7.93787 10.7052 7.74819C10.7833 7.65716 10.7911 7.52813 10.6896 7.39148C10.6271 7.30806 10.3303 7.24735 10.2053 7.36877C10.0803 7.49019 10.1974 7.68748 10.2912 7.7178M6.62758 7.61161C6.95562 7.8089 7.1666 8.1049 7.41648 7.83929C7.50248 7.74819 7.60401 7.58884 7.42432 7.27006C7.29151 7.0349 6.86199 6.94374 6.71351 7.0349C6.55732 7.11832 6.36992 7.4598 6.62758 7.61161ZM9.65059 9.1218C9.75219 9.22806 9.93182 9.22051 10.0411 9.15974C10.1427 9.09909 10.1271 8.93967 10.0255 8.80309C9.9631 8.71961 9.77557 8.67406 9.65059 8.80309C9.52561 8.93213 9.58026 9.04593 9.65059 9.1218Z" fill="#1A73E8"/>
</g>
<defs>
<clipPath id="clip0_1_9231">
<rect width="17" height="16" fill="white" transform="translate(6.5 7)"/>
</clipPath>
</defs>
</svg>
