<svg width="30" height="30" viewBox="0 0 30 30" fill="none" xmlns="http://www.w3.org/2000/svg">
<rect width="30" height="30" rx="15" fill="#BBBBBB" fill-opacity="0.22"/>
<rect x="0.5" y="0.5" width="29" height="29" rx="14.5" stroke="#BBBBBB" stroke-opacity="0.733333"/>
<path fill-rule="evenodd" clip-rule="evenodd" d="M9.505 14.995C9.505 14.5972 9.34696 14.2156 9.06566 13.9343C8.78435 13.653 8.40282 13.495 8.005 13.495H7.995C7.59717 13.495 7.21564 13.653 6.93433 13.9343C6.65303 14.2156 6.495 14.5972 6.495 14.995V15.005C6.495 15.4028 6.65303 15.7844 6.93433 16.0657C7.21564 16.347 7.59717 16.505 7.995 16.505H8.005C8.40282 16.505 8.78435 16.347 9.06566 16.0657C9.34696 15.7844 9.505 15.4028 9.505 15.005V14.995ZM15.005 13.495C15.4028 13.495 15.7844 13.653 16.0657 13.9343C16.347 14.2156 16.505 14.5972 16.505 14.995V15.005C16.505 15.4028 16.347 15.7844 16.0657 16.0657C15.7844 16.347 15.4028 16.505 15.005 16.505H14.995C14.5972 16.505 14.2156 16.347 13.9343 16.0657C13.653 15.7844 13.495 15.4028 13.495 15.005V14.995C13.495 14.5972 13.653 14.2156 13.9343 13.9343C14.2156 13.653 14.5972 13.495 14.995 13.495H15.005ZM22.005 13.495C22.4028 13.495 22.7843 13.653 23.0657 13.9343C23.347 14.2156 23.505 14.5972 23.505 14.995V15.005C23.505 15.4028 23.347 15.7844 23.0657 16.0657C22.7843 16.347 22.4028 16.505 22.005 16.505H21.995C21.5972 16.505 21.2156 16.347 20.9343 16.0657C20.653 15.7844 20.495 15.4028 20.495 15.005V14.995C20.495 14.5972 20.653 14.2156 20.9343 13.9343C21.2156 13.653 21.5972 13.495 21.995 13.495H22.005Z" fill="#BBBBBB"/>
</svg>
