<svg width="20" height="20" viewBox="0 0 20 20" fill="none" xmlns="http://www.w3.org/2000/svg">
<path d="M17.0833 6.66667C15.9233 4.0175 13.0642 2.5 9.98167 2.5C6.0825 2.5 2.8775 5.46 2.5 9.25" stroke="#C4C4C4" stroke-opacity="0.66" stroke-width="1.5" stroke-linecap="round" stroke-linejoin="round"/>
<path d="M13.7382 7H17.0466C17.1659 7 17.2804 6.95259 17.3648 6.8682C17.4492 6.78381 17.4966 6.66935 17.4966 6.55V3.25M2.91406 13.3333C4.07406 15.9825 6.93323 17.5 10.0157 17.5C13.9149 17.5 17.1199 14.54 17.4974 10.75" stroke="#C4C4C4" stroke-opacity="0.66" stroke-width="1.5" stroke-linecap="round" stroke-linejoin="round"/>
<path d="M6.25917 13H2.95083C2.89167 12.9999 2.83306 13.0114 2.77837 13.034C2.72368 13.0566 2.67397 13.0897 2.6321 13.1315C2.59022 13.1733 2.557 13.2229 2.53433 13.2776C2.51167 13.3323 2.5 13.3908 2.5 13.45V16.75" stroke="#C4C4C4" stroke-opacity="0.66" stroke-width="1.5" stroke-linecap="round" stroke-linejoin="round"/>
</svg>
