<svg width="11" height="12" viewBox="0 0 11 12" fill="none" xmlns="http://www.w3.org/2000/svg">
<path fill-rule="evenodd" clip-rule="evenodd" d="M0.6875 6.5C0.6875 7.77635 1.19453 9.00043 2.09705 9.90295C2.99957 10.8055 4.22365 11.3125 5.5 11.3125C6.77635 11.3125 8.00043 10.8055 8.90295 9.90295C9.80547 9.00043 10.3125 7.77635 10.3125 6.5C10.3125 5.22365 9.80547 3.99957 8.90295 3.09705C8.00043 2.19453 6.77635 1.6875 5.5 1.6875C4.22365 1.6875 2.99957 2.19453 2.09705 3.09705C1.19453 3.99957 0.6875 5.22365 0.6875 6.5ZM11 6.5C11 7.95869 10.4205 9.35764 9.38909 10.3891C8.35764 11.4205 6.95869 12 5.5 12C4.04131 12 2.64236 11.4205 1.61091 10.3891C0.579463 9.35764 0 7.95869 0 6.5C0 5.04131 0.579463 3.64236 1.61091 2.61091C2.64236 1.57946 4.04131 1 5.5 1C6.95869 1 8.35764 1.57946 9.38909 2.61091C10.4205 3.64236 11 5.04131 11 6.5ZM4.02462 8.42706C3.96017 8.49161 3.87271 8.52791 3.78149 8.52797C3.69027 8.52804 3.60277 8.49186 3.53822 8.42741C3.47367 8.36295 3.43737 8.27549 3.43731 8.18427C3.43724 8.09306 3.47342 8.00555 3.53787 7.941L6.35456 5.125H4.45156C4.36039 5.125 4.27296 5.08878 4.20849 5.02432C4.14403 4.95985 4.10781 4.87242 4.10781 4.78125C4.10781 4.69008 4.14403 4.60265 4.20849 4.53818C4.27296 4.47372 4.36039 4.4375 4.45156 4.4375H7.18437C7.27554 4.4375 7.36298 4.47372 7.42744 4.53818C7.49191 4.60265 7.52812 4.69008 7.52812 4.78125V7.51406C7.52812 7.60523 7.49191 7.69266 7.42744 7.75713C7.36298 7.8216 7.27554 7.85781 7.18437 7.85781C7.09321 7.85781 7.00577 7.8216 6.94131 7.75713C6.87684 7.69266 6.84062 7.60523 6.84062 7.51406V5.61106L4.02462 8.42706Z" fill="#005BF8"/>
</svg>
